<?xml version="1.0" standalone="no"?>
<!DOCTYPE svg PUBLIC "-//W3C//DTD SVG 1.1//EN" "http://www.w3.org/Graphics/SVG/1.1/DTD/svg11.dtd" >
<svg xmlns="http://www.w3.org/2000/svg" xmlns:xlink="http://www.w3.org/1999/xlink" version="1.1">
<metadata></metadata>
<defs>
<font id="gotham_prolight_italic" horiz-adv-x="1044" >
<font-face units-per-em="2048" ascent="1638" descent="-410" />
<missing-glyph horiz-adv-x="626" />
<glyph horiz-adv-x="0" />
<glyph unicode="&#xd;" horiz-adv-x="694" />
<glyph unicode=" "  horiz-adv-x="626" />
<glyph unicode="&#x09;" horiz-adv-x="626" />
<glyph unicode="&#xa0;" horiz-adv-x="626" />
<glyph unicode="!" horiz-adv-x="524" d="M50 0l48 177h138l-48 -177h-138zM192 382l219 934l40 147h121l-40 -147l-281 -934h-59z" />
<glyph unicode="&#x22;" horiz-adv-x="855" d="M211 931l194 532h132v-12l-266 -520h-60zM586 931l195 532h132v-12l-265 -520h-62z" />
<glyph unicode="#" horiz-adv-x="1415" d="M73 391l25 98h261l173 493h-277l24 98h287l134 383h100l-134 -383h433l133 383h101l-133 -383h251l-24 -98h-261l-174 -493h278l-25 -98h-286l-136 -391h-100l136 391h-433l-135 -391h-101l135 391h-252zM462 489h429l174 493h-432z" />
<glyph unicode="$" horiz-adv-x="1290" d="M-2 255l80 68q155 -179 413 -217l161 602q-205 77 -290 158t-85 206q0 167 139.5 279t346.5 112q34 0 92 -4l32 124h103l-37 -140q211 -39 359 -185l-76 -76q-127 128 -319 167l-152 -568q192 -69 276.5 -154.5t84.5 -212.5q0 -192 -157.5 -303t-414.5 -111l-55 -205 h-102l58 215q-285 44 -457 245zM389 1082q0 -92 65.5 -151.5t224.5 -117.5l148 547q-25 4 -75 4q-157 0 -260 -81t-103 -201zM580 98h24q179 0 295 84.5t116 220.5q0 88 -63 151.5t-215 124.5z" />
<glyph unicode="%" horiz-adv-x="1714" d="M136 0l1425 1463h125l-1425 -1463h-125zM194 1021q0 180 117 319t283 139q125 0 205 -86.5t80 -212.5q0 -179 -116.5 -318t-282.5 -139q-125 0 -205.5 87t-80.5 211zM297 1032q0 -100 50 -159.5t142 -59.5q117 0 202.5 111.5t85.5 245.5q0 100 -50 159.5t-143 59.5 q-117 0 -202 -111.5t-85 -245.5zM942 285q0 179 117 318t282 139q126 0 206 -87t80 -212q0 -180 -117 -318.5t-282 -138.5q-125 0 -205.5 86.5t-80.5 212.5zM1044 295q0 -100 50 -160t142 -60q118 0 203.5 112t85.5 245q0 100 -50 160t-142 60q-117 0 -203 -112t-86 -245z " />
<glyph unicode="&#x26;" horiz-adv-x="1441" d="M64 345q0 177 130.5 305.5t381.5 191.5q-98 159 -98 278q0 157 114 262t271 105q155 0 249 -83.5t94 -219.5q0 -273 -473 -401l297 -420q122 138 242 349l82 -48q-142 -234 -266 -371l188 -267l-82 -56l-177 253q-128 -125 -250.5 -184t-284.5 -59q-179 0 -298.5 97.5 t-119.5 267.5zM175 357q0 -130 87 -206t233 -76q242 0 466 220l-333 470q-227 -54 -340 -163t-113 -245zM584 1122q1 -117 97 -263q419 108 418 321q0 96 -66 155.5t-174 59.5q-111 0 -193 -80.5t-82 -192.5z" />
<glyph unicode="'" horiz-adv-x="480" d="M211 931l194 532h132v-12l-266 -520h-60z" />
<glyph unicode="(" horiz-adv-x="897" d="M207 455q0 321 207.5 600.5t619.5 446.5l36 -77q-199 -86 -348.5 -198.5t-236 -240t-128.5 -259t-42 -269.5q0 -215 81.5 -375.5t231.5 -314.5l-58 -61q-363 324 -363 748z" />
<glyph unicode=")" horiz-adv-x="897" d="M-134 -213q199 85 348 198t236 240.5t128.5 259t41.5 269.5q0 215 -81 375t-232 314l58 61q363 -323 364 -748q0 -321 -208 -600t-619 -447z" />
<glyph unicode="*" horiz-adv-x="897" d="M289 1120l269 50l-209 175l65 63l176 -202l50 261l85 -22l-87 -253l251 88l26 -86l-269 -50l209 -175l-66 -62l-175 202l-50 -261l-86 21l88 253l-253 -88z" />
<glyph unicode="+" horiz-adv-x="1334" d="M203 685l27 100h453l119 449h105l-120 -449h454l-27 -100h-454l-120 -449h-106l122 449h-453z" />
<glyph unicode="," horiz-adv-x="482" d="M-82 -171q144 50 168 171h-56l48 177h137l-42 -154q-31 -108 -83.5 -161.5t-156.5 -82.5z" />
<glyph unicode="-" horiz-adv-x="853" d="M155 562l31 117h560l-32 -117h-559z" />
<glyph unicode="." horiz-adv-x="482" d="M30 0l48 177h137l-48 -177h-137z" />
<glyph unicode="/" d="M-253 -267l1496 1934h113l-1496 -1934h-113z" />
<glyph unicode="0" horiz-adv-x="1481" d="M171 522q0 238 96 460t271.5 363.5t384.5 141.5q234 0 362.5 -151.5t128.5 -395.5q0 -237 -96 -459t-271.5 -364.5t-384.5 -142.5q-234 0 -362.5 151.5t-128.5 396.5zM285 522q0 -197 99.5 -323t283.5 -126q165 0 313.5 127.5t234.5 327t86 412.5q0 197 -100.5 323 t-284.5 126q-165 0 -313.5 -127.5t-233.5 -327t-85 -412.5z" />
<glyph unicode="1" horiz-adv-x="697" d="M194 0l362 1347l-307 -95l-4 97l367 124h86l-395 -1473h-109z" />
<glyph unicode="2" horiz-adv-x="1228" d="M-40 0l20 82l873 678q133 104 194.5 189t61.5 183q0 111 -83.5 182t-229.5 71q-222 0 -418 -209l-77 67q231 241 499 240q185 0 303.5 -97t118.5 -252q0 -121 -74 -223t-229 -221l-756 -586h844l-27 -104h-1020z" />
<glyph unicode="3" horiz-adv-x="1265" d="M20 261l91 50q124 -238 417 -238q194 0 321.5 103t127.5 265q0 137 -109.5 207.5t-299.5 70.5h-60l-24 54l652 589h-783l29 101h940l-20 -78l-642 -578q186 -8 309 -101.5t123 -256.5q0 -205 -167 -340t-403 -135q-181 0 -309.5 77t-192.5 210z" />
<glyph unicode="4" horiz-adv-x="1346" d="M58 439l1114 1034h100l-273 -1022h237l-24 -94h-239l-96 -357h-106l96 357h-792zM207 451h684l229 848z" />
<glyph unicode="5" horiz-adv-x="1254" d="M34 236l89 57q150 -224 409 -224q208 0 340.5 121t132.5 288q0 146 -98 230t-253 84q-172 0 -337 -92l-68 54l231 709h790l-29 -101h-693l-181 -541q48 28 135.5 48t151.5 20q213 0 338.5 -109.5t125.5 -297.5q0 -211 -165.5 -359.5t-426.5 -148.5q-319 0 -492 262z" />
<glyph unicode="6" horiz-adv-x="1336" d="M173 512q0 234 81 434t212 332q209 209 467 209q263 0 427 -194l-80 -69q-146 165 -352.5 165t-377.5 -171q-102 -102 -173.5 -253.5t-81.5 -302.5q73 108 189 177.5t266 69.5q213 0 340.5 -125.5t127.5 -301.5q0 -207 -159 -357.5t-397 -150.5q-213 0 -347 134 q-142 142 -142 404zM297 420q0 -150 96 -247q102 -102 275 -102q188 0 312.5 121t124.5 290q0 130 -94 228.5t-267 98.5q-194 0 -320.5 -118.5t-126.5 -270.5z" />
<glyph unicode="7" horiz-adv-x="1206" d="M167 0l984 1358h-842l30 105h969l-23 -80l-992 -1383h-126z" />
<glyph unicode="8" horiz-adv-x="1338" d="M84 361q0 169 125.5 277t320.5 137q-95 36 -159 117t-64 194q0 170 150.5 283.5t369.5 113.5q211 0 348 -104.5t137 -269.5q0 -148 -109 -249.5t-270 -130.5q106 -37 181.5 -125t75.5 -205q0 -182 -163.5 -300.5t-410.5 -118.5q-236 0 -384 110.5t-148 270.5zM197 374 q0 -131 116.5 -213.5t308.5 -82.5q205 0 330.5 90.5t125.5 234.5q0 123 -116 212t-306 89q-207 0 -333 -96t-126 -234zM420 1078q0 -121 102 -202.5t261 -81.5q194 0 305.5 93t111.5 216t-104 202.5t-269 79.5q-181 0 -294 -87.5t-113 -219.5z" />
<glyph unicode="9" horiz-adv-x="1336" d="M69 180l79 69q157 -178 366 -178q226 0 417 216.5t213 504.5q-173 -258 -459 -258q-213 0 -339.5 126.5t-126.5 304.5q0 213 161 366.5t399 153.5q222 0 354.5 -139.5t132.5 -396.5q0 -214 -66 -400t-173.5 -310t-243 -195.5t-275.5 -71.5q-267 0 -439 208zM333 969 q0 -136 92.5 -235t274.5 -99q187 0 314.5 124t127.5 285q0 158 -108.5 251.5t-262.5 93.5q-186 0 -312 -124.5t-126 -295.5z" />
<glyph unicode=":" horiz-adv-x="502" d="M40 0l48 177h137l-48 -177h-137zM277 887l48 178h139l-48 -178h-139z" />
<glyph unicode=";" horiz-adv-x="502" d="M-71 -171q143 50 167 171h-56l48 177h137l-41 -154q-32 -108 -84 -161.5t-156 -82.5zM277 887l48 178h139l-48 -178h-139z" />
<glyph unicode="&#x3c;" horiz-adv-x="1336" d="M163 694l23 83l1105 503l-31 -122l-957 -431l725 -434l-29 -103z" />
<glyph unicode="=" horiz-adv-x="1336" d="M169 447l30 107h947l-28 -107h-949zM297 917l26 107h949l-27 -107h-948z" />
<glyph unicode="&#x3e;" horiz-adv-x="1336" d="M106 190l32 123l956 431l-725 434l30 102l835 -503l-22 -83z" />
<glyph unicode="?" horiz-adv-x="1114" d="M211 1270q211 211 485 211q191 0 305.5 -102.5t114.5 -262.5q0 -197 -157 -318t-397 -154l-90 -262h-67l63 339l14 10q236 17 379.5 118.5t143.5 264.5q0 127 -90 198t-228 71q-225 0 -410 -183zM267 0l48 177h138l-48 -177h-138z" />
<glyph unicode="@" horiz-adv-x="2047" d="M138 482q0 266 138 498t374.5 369.5t513.5 137.5q378 0 597.5 -208.5t219.5 -528.5q0 -276 -136.5 -436.5t-294.5 -160.5q-108 0 -173 55t-80 153q-165 -213 -388 -213q-140 0 -234.5 95.5t-94.5 251.5q0 223 157.5 388.5t350.5 165.5q126 0 206.5 -64t115.5 -162l63 205 l98 -27l-157 -506q-17 -56 -17 -100q0 -76 42 -120.5t122 -44.5q123 0 234.5 138t111.5 382q0 288 -200 479.5t-543 191.5q-389 0 -671 -280t-282 -659q0 -338 220.5 -544.5t583.5 -206.5q225 0 432 94l30 -61q-219 -101 -462 -101q-399 0 -638 225t-239 594zM698 499 q0 -118 64.5 -185t166.5 -67q159 0 295 134.5t136 297.5q0 120 -73 196t-195 76q-163 0 -278.5 -134t-115.5 -318z" />
<glyph unicode="A" horiz-adv-x="1585" d="M-71 0l1076 1473h104l286 -1473h-110l-75 409h-863l-297 -409h-121zM418 508h770l-156 846z" />
<glyph unicode="B" horiz-adv-x="1497" d="M75 0l393 1463h541q201 0 319.5 -89t118.5 -244t-108.5 -258t-277.5 -137q125 -33 202.5 -108t77.5 -197q0 -189 -165 -309.5t-443 -120.5h-658zM211 100h529q227 0 358.5 87.5t131.5 242.5q0 124 -106.5 190.5t-279.5 66.5h-477zM395 787h451q221 0 355 92t134 241 q0 119 -88.5 180.5t-247.5 61.5h-449z" />
<glyph unicode="C" horiz-adv-x="1541" d="M192 566q0 234 116 447t319.5 343.5t437.5 130.5q192 0 329 -86.5t208 -228.5l-93 -50q-76 132 -181.5 199.5t-268.5 67.5q-309 0 -531.5 -251t-222.5 -568q0 -227 138.5 -362t356.5 -135q155 0 270.5 55.5t224.5 164.5l73 -68q-242 -253 -579 -253q-250 0 -423.5 162.5 t-173.5 431.5z" />
<glyph unicode="D" horiz-adv-x="1610" d="M75 0l393 1463h328q372 0 568 -197q161 -161 161 -418q0 -339 -228 -566q-133 -134 -326.5 -208t-416.5 -74h-479zM211 100h357q397 0 648 251q196 196 196 485q0 229 -136 361q-164 165 -483 165h-4h-239z" />
<glyph unicode="E" horiz-adv-x="1355" d="M75 0l393 1463h1029l-26 -101h-921l-155 -575h827l-28 -100h-827l-156 -587h931l-26 -100h-1041z" />
<glyph unicode="F" horiz-adv-x="1369" d="M75 0l393 1463h1029l-26 -101h-921l-161 -599h827l-28 -101h-827l-177 -662h-109z" />
<glyph unicode="G" horiz-adv-x="1641" d="M197 590q0 225 114.5 430.5t322.5 336t454 130.5q361 0 535 -271l-86 -56q-73 111 -177 170t-282 59q-213 0 -392.5 -116.5t-278 -298.5t-98.5 -380q0 -243 144.5 -383t379.5 -140q243 0 423 119l133 468h-486l26 100h594l-180 -628q-240 -158 -515.5 -158t-453 169.5 t-177.5 448.5z" />
<glyph unicode="H" horiz-adv-x="1578" d="M75 0l393 1463h108l-181 -678h925l182 678h109l-393 -1463h-109l184 685h-926l-183 -685h-109z" />
<glyph unicode="I" horiz-adv-x="572" d="M90 0l392 1463h110l-393 -1463h-109z" />
<glyph unicode="J" horiz-adv-x="1123" d="M-10 315l96 34q83 -271 319 -271q157 0 265 108q104 104 163 320l257 957h110l-262 -972q-64 -245 -194 -374q-138 -137 -335 -137q-173 0 -276 91.5t-143 243.5z" />
<glyph unicode="K" horiz-adv-x="1491" d="M75 0l393 1463h108l-255 -951l1170 951h161l-813 -654l443 -809h-124l-408 746l-468 -381l-98 -365h-109z" />
<glyph unicode="L" horiz-adv-x="1252" d="M75 0l393 1463h108l-365 -1363h859l-28 -100h-967z" />
<glyph unicode="M" horiz-adv-x="1814" d="M75 0l393 1463h90l355 -865l819 865h114l-392 -1463h-109l341 1270l-805 -842h-8l-353 842l-340 -1270h-105z" />
<glyph unicode="N" horiz-adv-x="1641" d="M75 0l393 1463h100l658 -1281l345 1281h104l-393 -1463h-78l-674 1308l-350 -1308h-105z" />
<glyph unicode="O" horiz-adv-x="1766" d="M201 602q0 225 111.5 429.5t307 330t422.5 125.5q274 0 452.5 -180.5t178.5 -447.5q0 -226 -112 -431t-307 -330.5t-423 -125.5q-273 0 -451.5 181.5t-178.5 448.5zM313 602q0 -228 144.5 -379.5t373.5 -151.5q201 0 370 113t264.5 293.5t95.5 381.5q0 227 -144.5 378.5 t-374.5 151.5q-200 0 -369 -112.5t-264.5 -293.5t-95.5 -381z" />
<glyph unicode="P" horiz-adv-x="1384" d="M75 0l393 1463h455q271 0 403 -132q100 -100 101 -261q0 -247 -194.5 -384.5t-528.5 -137.5h-371l-149 -548h-109zM357 646h351q295 0 452.5 109.5t157.5 309.5q0 119 -75 195q-102 102 -322 102h-371z" />
<glyph unicode="Q" horiz-adv-x="1766" d="M201 602q0 225 111.5 429.5t307 330t422.5 125.5q274 0 452.5 -180.5t178.5 -447.5q0 -188 -81 -366t-224 -305l157 -172l-80 -66l-150 178q-215 -156 -464 -156q-273 0 -451.5 181.5t-178.5 448.5zM313 602q0 -228 144.5 -379.5t373.5 -151.5q216 0 397 132l-244 271 l79 69l239 -280q121 113 190 271t69 325q0 227 -144.5 378.5t-374.5 151.5q-200 0 -369 -112.5t-264.5 -293.5t-95.5 -381z" />
<glyph unicode="R" horiz-adv-x="1489" d="M75 0l393 1463h524q264 0 393 -130q92 -92 92 -239q0 -175 -130 -305q-141 -141 -430 -173l321 -616h-124l-314 606h-453l-163 -606h-109zM372 704h439q311 0 459 149q98 98 98 235q0 108 -64 174q-100 100 -316 100h-438z" />
<glyph unicode="S" horiz-adv-x="1332" d="M42 259l83 60q96 -123 217.5 -182t292.5 -59q180 0 301 90.5t121 228.5q0 96 -71 160.5t-249 134.5q-231 89 -324.5 173t-93.5 215q0 170 146.5 286.5t378.5 116.5q159 0 291.5 -61.5t216.5 -161.5l-84 -68q-167 192 -435 193q-181 0 -292 -87.5t-111 -209.5 q0 -98 80 -161.5t269 -137.5q209 -79 299 -165.5t90 -218.5q0 -180 -155 -302.5t-389 -122.5q-384 0 -582 279z" />
<glyph unicode="T" horiz-adv-x="1284" d="M293 1362l26 101h1128l-26 -101h-510l-365 -1362h-109l365 1362h-509z" />
<glyph unicode="U" horiz-adv-x="1578" d="M201 437q0 113 29 225l213 801h109l-227 -851q-18 -75 -18 -167q0 -166 108.5 -268t319.5 -102q207 0 357 150q136 136 205 389l228 849h109l-235 -871q-73 -272 -231 -431q-184 -184 -441 -184q-255 0 -390.5 127.5t-135.5 332.5z" />
<glyph unicode="V" horiz-adv-x="1491" d="M297 1463h112l207 -1346l932 1346h123l-1033 -1473h-97z" />
<glyph unicode="W" horiz-adv-x="2242" d="M313 1463h113l111 -1302l777 1306h83l80 -1306l809 1302h120l-925 -1473h-88l-87 1270l-769 -1270h-88z" />
<glyph unicode="X" horiz-adv-x="1445" d="M-48 0l764 756l-388 707h117l349 -644l647 644h140l-735 -726l401 -737h-117l-361 675l-677 -675h-140z" />
<glyph unicode="Y" horiz-adv-x="1395" d="M265 1463h120l336 -786l760 786h146l-879 -897l-150 -566h-109l159 594z" />
<glyph unicode="Z" horiz-adv-x="1382" d="M-40 0l17 60l1329 1304h-945l28 99h1113l-17 -62l-1328 -1303h985l-26 -98h-1156z" />
<glyph unicode="[" horiz-adv-x="897" d="M34 -271l465 1734h571l-23 -80h-475l-422 -1575h474l-20 -79h-570z" />
<glyph unicode="\" d="M307 1667h92l462 -1934h-92z" />
<glyph unicode="]" horiz-adv-x="897" d="M-140 -271l23 79h474l422 1575h-474l20 80h572l-467 -1734h-570z" />
<glyph unicode="^" d="M269 1030l447 439h93l212 -439h-98l-173 349l-361 -349h-120z" />
<glyph unicode="_" horiz-adv-x="1252" d="M-238 -335l25 92h1264l-25 -92h-1264z" />
<glyph unicode="`" d="M604 1459l129 62l109 -278h-73z" />
<glyph unicode="a" horiz-adv-x="1192" d="M48 273q0 176 133.5 281.5t346.5 105.5q188 0 410 -60l9 28q14 54 14 107q0 122 -82.5 186.5t-238.5 64.5q-146 0 -310 -57l-19 92q169 60 337 61q194 0 303.5 -88.5t109.5 -243.5q0 -60 -21 -140l-163 -610h-100l48 184q-175 -210 -428 -210q-144 0 -246.5 79 t-102.5 220zM157 287q0 -98 70 -158t189 -60q157 0 296 99t179 256l26 94q-201 50 -403 50q-159 0 -258 -78.5t-99 -202.5z" />
<glyph unicode="b" horiz-adv-x="1365" d="M52 0l410 1525h102l-182 -668q197 233 443 233q186 0 307.5 -126.5t121.5 -321.5q0 -280 -179.5 -475t-422.5 -195q-165 0 -272 85t-153 214l-72 -271h-103zM279 441q0 -157 104 -264.5t265 -107.5q211 0 352.5 167t141.5 392q0 164 -91.5 265t-237.5 101 q-201 0 -367.5 -171t-166.5 -382z" />
<glyph unicode="c" horiz-adv-x="1176" d="M104 435q0 263 187 459t440 196q153 0 258 -72.5t160 -184.5l-86 -48q-119 209 -338 209q-203 0 -356.5 -167t-153.5 -386q0 -172 105.5 -271t253.5 -99q182 0 345 152l69 -66q-188 -183 -420 -183q-186 0 -325 125.5t-139 335.5z" />
<glyph unicode="d" horiz-adv-x="1365" d="M113 422q0 280 179.5 474t421.5 194q165 0 271.5 -84.5t152.5 -213.5l197 733h102l-407 -1525h-103l55 207q-197 -235 -441 -235q-186 0 -307 126.5t-121 323.5zM223 435q0 -164 92.5 -265t238.5 -101q201 0 366.5 171t165.5 382q0 157 -103.5 264.5t-263.5 107.5 q-211 0 -353.5 -167t-142.5 -392z" />
<glyph unicode="e" horiz-adv-x="1216" d="M104 422q0 257 182 462.5t435 205.5q192 0 297.5 -116.5t105.5 -290.5q0 -102 -30 -186h-875q-4 -46 -4 -71q0 -161 98 -258t255 -97q190 0 363 142l61 -73q-198 -166 -424 -166q-205 0 -334.5 125.5t-129.5 322.5zM238 590h773q8 37 8 87q0 138 -76 229t-224 91 q-171 0 -302 -117t-179 -290z" />
<glyph unicode="f" horiz-adv-x="755" d="M115 0l261 971h-155l26 94h154l42 155q81 305 340 305q120 0 214 -50l-26 -92q-106 50 -192 50q-179 0 -240 -236l-35 -132h383l-24 -94h-385l-261 -971h-102z" />
<glyph unicode="g" horiz-adv-x="1365" d="M-10 -140l74 76q188 -178 433 -179q209 0 328 120q94 93 146 280l38 134q-199 -211 -439 -211q-179 0 -312 113.5t-133 299.5q0 257 184 427t420 170q293 0 415 -283l70 258h102l-248 -933q-56 -207 -167 -318q-153 -153 -408 -153q-140 0 -273.5 53.5t-229.5 145.5z M236 499q0 -153 105 -238.5t249 -85.5q198 0 353.5 147.5t155.5 329.5q0 135 -104 237.5t-270 102.5q-194 0 -341.5 -140t-147.5 -353z" />
<glyph unicode="h" horiz-adv-x="1271" d="M52 0l410 1525h102l-177 -658q185 223 402 223q160 0 254.5 -92.5t94.5 -245.5q0 -58 -22 -150l-159 -602h-102l162 610q16 62 17 132q0 119 -73.5 188t-200.5 69q-140 0 -269.5 -113t-175.5 -284l-160 -602h-103z" />
<glyph unicode="i" horiz-adv-x="522" d="M67 0l286 1065h102l-286 -1065h-102zM416 1343l37 140h127l-37 -140h-127z" />
<glyph unicode="j" horiz-adv-x="519" d="M-241 -319l26 92q58 -17 98 -18q117 0 157 145l313 1165h102l-315 -1173q-30 -111 -94 -172t-154 -61q-69 0 -133 22zM416 1343l37 140h127l-37 -140h-127z" />
<glyph unicode="k" horiz-adv-x="1168" d="M52 0l410 1525h102l-303 -1130l827 670h148l-592 -475l317 -590h-119l-284 526l-335 -267l-68 -259h-103z" />
<glyph unicode="l" horiz-adv-x="522" d="M67 0l409 1525h102l-409 -1525h-102z" />
<glyph unicode="m" horiz-adv-x="1985" d="M52 0l285 1065h102l-52 -198q89 111 176 167t206 56q134 0 213 -76t98 -185q159 261 447 261q144 0 238 -94.5t94 -243.5q0 -42 -27 -150l-159 -602h-102l163 610q16 62 16 132q0 117 -68.5 187t-184.5 70q-129 0 -254 -114t-169 -283l-159 -602h-102l162 610 q16 62 17 132q0 117 -68.5 187t-183.5 70q-130 0 -255.5 -114t-169.5 -283l-160 -602h-103z" />
<glyph unicode="n" horiz-adv-x="1276" d="M52 0l285 1065h102l-52 -198q185 223 402 223q160 0 254.5 -92.5t94.5 -245.5q0 -58 -22 -150l-159 -602h-102l162 610q16 62 17 132q0 119 -73.5 188t-200.5 69q-140 0 -269.5 -113t-175.5 -284l-160 -602h-103z" />
<glyph unicode="o" horiz-adv-x="1321" d="M106 447q0 255 190.5 449t443.5 194q211 0 342.5 -132.5t131.5 -339.5q0 -259 -192.5 -451.5t-441.5 -192.5q-211 0 -342.5 133.5t-131.5 339.5zM217 451q0 -178 102.5 -279t272.5 -101q198 0 354.5 163t156.5 380q0 178 -102 279t-272 101q-203 0 -357.5 -165 t-154.5 -378z" />
<glyph unicode="p" horiz-adv-x="1365" d="M-38 -335l377 1400h100l-57 -208q197 233 443 233q186 0 307.5 -126.5t121.5 -321.5q0 -280 -179.5 -475t-422.5 -195q-165 0 -272 85t-153 214l-163 -606h-102zM279 441q0 -157 104 -264.5t265 -107.5q211 0 352.5 167t141.5 392q0 164 -91.5 265t-237.5 101 q-201 0 -367.5 -171t-166.5 -382z" />
<glyph unicode="q" horiz-adv-x="1365" d="M113 422q0 280 179.5 474t421.5 194q167 0 272.5 -84.5t151.5 -211.5l74 271h102l-395 -1483h-102l167 627q-197 -236 -443 -237q-186 0 -307 126.5t-121 323.5zM223 435q0 -164 92.5 -265t238.5 -101q201 0 366.5 172.5t165.5 382.5q0 157 -103.5 263.5t-263.5 106.5 q-211 0 -353.5 -167t-142.5 -392z" />
<glyph unicode="r" horiz-adv-x="827" d="M52 0l285 1065h102l-80 -302q229 320 517 320q15 0 31 -1l-30 -113h-8q-192 0 -362 -144t-236 -388l-116 -437h-103z" />
<glyph unicode="s" horiz-adv-x="1033" d="M2 161l73 73q169 -163 388 -163h3q106 0 191 59.5t85 151.5q0 64 -49 112.5t-183 98.5q-159 58 -229 122t-70 164q0 130 109.5 219.5t285.5 89.5q215 0 384 -141l-67 -78q-153 125 -327 125q-128 0 -202.5 -58.5t-74.5 -139.5q0 -65 48.5 -108.5t192.5 -101.5 q159 -62 225 -126.5t66 -160.5q0 -138 -117.5 -230t-280.5 -92q-267 0 -451 184z" />
<glyph unicode="t" horiz-adv-x="827" d="M175 192q0 48 13 103l181 676h-154l26 94h154l92 341h103l-93 -341h368l-26 -94h-367l-181 -678q-11 -46 -12 -90q0 -128 174 -128q67 0 155 33l-28 -100q-72 -26 -150 -26q-113 0 -184 53t-71 157z" />
<glyph unicode="u" horiz-adv-x="1271" d="M134 313q0 58 23 151l158 601h103l-163 -610q-16 -62 -17 -132q0 -119 73.5 -187.5t200.5 -68.5q140 0 269.5 113t175.5 284l161 601h102l-284 -1065h-103l52 199q-185 -225 -403 -225q-159 0 -253.5 93.5t-94.5 245.5z" />
<glyph unicode="v" horiz-adv-x="1162" d="M186 1065h111l148 -950l654 950h123l-760 -1073h-88z" />
<glyph unicode="w" horiz-adv-x="1764" d="M207 1065h104l78 -927l570 932h81l74 -932l574 927h112l-678 -1073h-90l-73 913l-564 -913h-86z" />
<glyph unicode="x" horiz-adv-x="1166" d="M-60 0l592 552l-281 513h116l235 -449l468 449h138l-560 -522l294 -543h-117l-247 478l-500 -478h-138z" />
<glyph unicode="y" horiz-adv-x="1186" d="M-184 -267l56 83q76 -60 182 -61q84 0 164.5 57.5t176.5 193.5l-218 1059h110l185 -952l642 952h122l-758 -1103q-113 -163 -216 -233t-220 -70q-122 0 -226 74z" />
<glyph unicode="z" horiz-adv-x="1140" d="M-36 0l18 58l991 915h-718l24 92h887l-17 -58l-992 -915h754l-26 -92h-921z" />
<glyph unicode="{" horiz-adv-x="1002" d="M136 560l21 80h54q161 0 235 84.5t118 299.5q44 226 166.5 339.5t399.5 129.5l-6 -76q-219 -12 -320.5 -110.5t-139.5 -293.5q-42 -215 -112 -305t-207 -112q144 -44 144 -174q0 -56 -19 -119q-46 -157 -46 -241q0 -221 257 -292l-29 -65q-172 38 -251.5 132t-79.5 217 q0 76 48 251q19 67 20 115q0 140 -199 140h-54z" />
<glyph unicode="|" horiz-adv-x="596" d="M295 -267v1934h92v-1934h-92z" />
<glyph unicode="}" horiz-adv-x="1002" d="M-92 -295l6 78q220 12 321.5 110.5t138.5 292.5q42 215 112 304.5t208 113.5q-144 44 -144 173q0 56 18 120q46 157 46 239q0 222 -257 293l30 64q171 -37 250 -131t79 -218q0 -75 -48 -249q-18 -68 -18 -116q0 -139 198 -139h55l-22 -80h-54q-161 0 -235 -84.5 t-118 -300.5q-46 -225 -167 -339t-399 -131z" />
<glyph unicode="~" horiz-adv-x="960" d="M182 543q52 104 102.5 152.5t114.5 48.5q42 0 70 -17t70 -57q64 -62 101 -62q31 0 57 28t66 97l79 -31q-53 -104 -102.5 -152t-115.5 -48q-42 0 -70 16t-70 56q-64 62 -99 64q-32 0 -58 -29.5t-66 -96.5z" />
<glyph unicode="&#xa2;" horiz-adv-x="1164" d="M157 633q0 272 187.5 468t449.5 196q37 0 57 -2l70 180h105l-79 -197q198 -50 281 -236l-86 -48q-87 160 -237 194l-355 -903q35 -7 74 -8q205 0 375 153l69 -67q-197 -181 -450 -181q-46 0 -98 10l-81 -204h-104l91 231q-123 52 -196 163t-73 251zM267 635 q0 -113 52.5 -199.5t146.5 -126.5l351 893h-30q-215 0 -367.5 -167.5t-152.5 -399.5z" />
<glyph unicode="&#xa3;" horiz-adv-x="1302" d="M-4 0l14 52l191 42l146 544h-180l27 99h180l73 274q56 213 167 324q142 142 341 142q263 0 388 -230l-89 -55q-116 186 -305 187q-148 0 -253 -105q-96 -96 -146 -282l-70 -255h623l-27 -99h-623l-144 -540h781l-27 -98h-1067z" />
<glyph unicode="&#xa5;" horiz-adv-x="1461" d="M155 261l25 94h438l54 205h-438l25 94h397l-355 809h123l336 -786l761 786h142l-794 -809h385l-26 -94h-447l-54 -205h447l-25 -94h-447l-69 -261h-109l70 261h-439z" />
<glyph unicode="&#xa8;" d="M445 1243l46 167h144l-45 -167h-145zM785 1243l46 167h144l-46 -167h-144z" />
<glyph unicode="&#xa9;" horiz-adv-x="1732" d="M163 729q0 311 221.5 534.5t536.5 223.5t534.5 -221.5t219.5 -532.5t-221.5 -535t-536.5 -224t-534.5 222t-219.5 533zM225 729q0 -290 198.5 -492.5t493.5 -202.5t495.5 204.5t200.5 495t-198.5 493t-493.5 202.5t-495.5 -205t-200.5 -495zM548 742q0 163 109.5 279.5 t271.5 116.5q161 0 295 -127l-62 -64q-113 108 -235 108q-125 0 -206 -91t-81 -220.5t84.5 -221.5t204.5 -92q126 0 241 109l58 -59q-138 -133 -301 -133q-161 0 -270 114.5t-109 280.5z" />
<glyph unicode="&#xab;" horiz-adv-x="1075" d="M94 524l4 17l452 436l74 -58l-401 -401l174 -384l-86 -46zM520 524l4 17l451 436l76 -58l-401 -401l173 -384l-86 -46z" />
<glyph unicode="&#xad;" horiz-adv-x="853" d="M155 562l31 117h560l-32 -117h-559z" />
<glyph unicode="&#xae;" horiz-adv-x="1732" d="M163 729q0 311 221.5 534.5t536.5 223.5t534.5 -221.5t219.5 -532.5t-221.5 -535t-536.5 -224t-534.5 222t-219.5 533zM225 729q0 -290 198.5 -492.5t493.5 -202.5t495.5 204.5t200.5 495t-198.5 493t-493.5 202.5t-495.5 -205t-200.5 -495zM628 369v765h343 q123 0 203 -60.5t80 -160.5q0 -90 -57 -146.5t-153 -74.5l255 -323h-117l-242 308h-221v-308h-91zM719 760h238q90 0 146.5 38.5t56.5 110.5q0 64 -51.5 102t-141.5 38h-248v-289z" />
<glyph unicode="&#xb4;" d="M524 1243l259 278l130 -62l-283 -216h-106z" />
<glyph unicode="&#xb8;" d="M146 -255l261 275h90l-250 -329z" />
<glyph unicode="&#xbb;" horiz-adv-x="1075" d="M23 144l401 402l-173 383l86 46l217 -436l-4 -17l-452 -436zM449 144l402 402l-174 383l86 46l217 -436l-5 -17l-451 -436z" />
<glyph unicode="&#x2c6;" d="M464 1243l278 254h83l140 -254h-92l-108 142l-201 -142h-100z" />
<glyph unicode="&#x2da;" d="M550 1414q0 87 65.5 150t155.5 63q88 0 144 -48t56 -123q0 -88 -66 -150.5t-155 -62.5q-88 0 -144 48t-56 123zM624 1414q0 -46 33 -75t93.5 -29t103.5 42.5t43 103.5q0 45 -33 75t-93.5 30t-103.5 -43t-43 -104z" />
<glyph unicode="&#x2dc;" d="M407 1270q52 104 102.5 152.5t114.5 48.5q42 0 70.5 -17t70.5 -57q64 -62 100 -62q32 0 58 29t65 97l80 -32q-52 -104 -102.5 -152.5t-114.5 -48.5q-42 0 -70.5 17t-70.5 57q-64 62 -100 62q-32 0 -58 -29t-65 -97z" />
<glyph unicode="&#x401;" horiz-adv-x="1355" d="M75 0l393 1463h1029l-26 -101h-921l-155 -575h827l-28 -100h-827l-156 -587h931l-26 -100h-1041zM763 1598l46 168h144l-46 -168h-144zM1103 1598l46 168h144l-46 -168h-144z" />
<glyph unicode="&#x402;" horiz-adv-x="1737" d="M293 1362l26 101h1128l-26 -101h-573l-163 -606q146 94 260 134.5t261 40.5q179 0 298 -100t119 -271q0 -251 -165 -418.5t-430 -167.5q-163 0 -232 46l52 91q71 -38 184 -38q218 0 347.5 138t129.5 345q0 121 -89 199t-223 78q-155 0 -275 -43.5t-268 -149.5l-172 -640 h-108l366 1362h-447z" />
<glyph unicode="&#x403;" horiz-adv-x="1214" d="M75 0l391 1463h913l-25 -101h-804l-366 -1362h-109zM798 1598l259 278l129 -62l-281 -216h-107z" />
<glyph unicode="&#x404;" horiz-adv-x="1541" d="M192 566q0 234 116 447t319.5 343.5t437.5 130.5q177 0 308 -74t206 -199l-94 -54q-150 229 -426 229q-253 0 -453.5 -174.5t-270.5 -427.5h774l-27 -100h-769q-8 -52 -8 -117q0 -227 138.5 -362t356.5 -135q155 0 270.5 55.5t224.5 164.5l73 -68q-242 -253 -579 -253 q-250 0 -423.5 162.5t-173.5 431.5z" />
<glyph unicode="&#x405;" horiz-adv-x="1332" d="M42 259l83 60q96 -123 217.5 -182t292.5 -59q180 0 301 90.5t121 228.5q0 96 -71 160.5t-249 134.5q-231 89 -324.5 173t-93.5 215q0 170 146.5 286.5t378.5 116.5q159 0 291.5 -61.5t216.5 -161.5l-84 -68q-167 192 -435 193q-181 0 -292 -87.5t-111 -209.5 q0 -98 80 -161.5t269 -137.5q209 -79 299 -165.5t90 -218.5q0 -180 -155 -302.5t-389 -122.5q-384 0 -582 279z" />
<glyph unicode="&#x406;" horiz-adv-x="572" d="M90 0l392 1463h110l-393 -1463h-109z" />
<glyph unicode="&#x407;" horiz-adv-x="572" d="M90 0l392 1463h110l-393 -1463h-109zM319 1598l46 168h145l-46 -168h-145zM660 1598l46 168h145l-47 -168h-144z" />
<glyph unicode="&#x408;" horiz-adv-x="1123" d="M-10 315l96 34q83 -271 319 -271q157 0 265 108q104 104 163 320l257 957h110l-262 -972q-64 -245 -194 -374q-138 -137 -335 -137q-173 0 -276 91.5t-143 243.5z" />
<glyph unicode="&#x409;" horiz-adv-x="2426" d="M-155 26l55 85q46 -25 132 -25q41 0 81 14.5t104.5 78.5t127 173.5t143 323t160.5 506.5l75 281h896l-158 -590h377q263 0 389 -125q93 -94 93 -246q0 -238 -187.5 -370t-513.5 -132h-501l365 1362h-683l-50 -184q-82 -307 -164 -529.5t-151.5 -349t-144.5 -198 t-133 -93.5t-129 -22q-120 0 -183 40zM1254 100h369q284 0 436.5 102.5t152.5 294.5q0 111 -69 180q-96 96 -307 96h-403z" />
<glyph unicode="&#x40a;" horiz-adv-x="2418" d="M75 0l393 1463h108l-167 -619h926l167 619h109l-170 -619h403q257 0 379 -121q89 -90 89 -236q0 -232 -183.5 -359.5t-503.5 -127.5h-516l199 744h-926l-198 -744h-109zM1243 100h386q277 0 426 99.5t149 282.5q0 104 -65 170q-92 92 -297 92h-425z" />
<glyph unicode="&#x40b;" horiz-adv-x="1770" d="M293 1362l26 101h1128l-26 -101h-573l-156 -583q307 148 512 148q183 0 291.5 -76t108.5 -221q0 -60 -17 -118l-136 -512h-108l140 522q12 46 12 86q0 106 -76 165.5t-213 59.5q-228 0 -542 -156l-182 -677h-108l366 1362h-447z" />
<glyph unicode="&#x40c;" horiz-adv-x="1491" d="M75 0l393 1463h108l-255 -951l1170 951h161l-813 -654l443 -809h-124l-408 746l-468 -381l-98 -365h-109zM865 1598l259 278l130 -62l-283 -216h-106z" />
<glyph unicode="&#x40e;" horiz-adv-x="1483" d="M10 30l63 89q76 -41 180 -41q203 0 397 259l-355 1126h116l318 -1024l773 1024h127l-883 -1166q-242 -323 -497 -323q-165 0 -239 56zM723 1834l88 19q10 -75 47 -114t113 -39q82 0 142.5 41t90.5 112l83 -19q-33 -104 -121 -170t-196.5 -66t-175.5 66t-71 170z" />
<glyph unicode="&#x40f;" horiz-adv-x="1549" d="M75 0l393 1463h108l-365 -1363h896l366 1363h108l-393 -1463h-480l-90 -335h-112l90 335h-521z" />
<glyph unicode="&#x410;" horiz-adv-x="1585" d="M-71 0l1076 1473h104l286 -1473h-110l-75 409h-863l-297 -409h-121zM418 508h770l-156 846z" />
<glyph unicode="&#x411;" horiz-adv-x="1461" d="M75 0l393 1463h997l-26 -101h-889l-141 -518h454q257 0 378 -121q90 -90 90 -236q0 -232 -184 -359.5t-503 -127.5h-569zM211 100h437q277 0 425.5 99.5t148.5 282.5q0 104 -64 170q-92 92 -297 92h-476z" />
<glyph unicode="&#x412;" horiz-adv-x="1497" d="M75 0l393 1463h541q201 0 319.5 -89t118.5 -244t-108.5 -258t-277.5 -137q125 -33 202.5 -108t77.5 -197q0 -189 -165 -309.5t-443 -120.5h-658zM211 100h529q227 0 358.5 87.5t131.5 242.5q0 124 -106.5 190.5t-279.5 66.5h-477zM395 787h451q221 0 355 92t134 241 q0 119 -88.5 180.5t-247.5 61.5h-449z" />
<glyph unicode="&#x413;" horiz-adv-x="1214" d="M75 0l391 1463h913l-25 -101h-804l-366 -1362h-109z" />
<glyph unicode="&#x414;" horiz-adv-x="1568" d="M-209 -335l117 435h146q321 330 512 1014l96 349h897l-367 -1363h199l-137 -435h-92l90 335h-1260l-109 -335h-92zM188 100h896l339 1262h-683l-90 -328q-80 -297 -200.5 -541.5t-261.5 -392.5z" />
<glyph unicode="&#x415;" horiz-adv-x="1355" d="M75 0l393 1463h1029l-26 -101h-921l-155 -575h827l-28 -100h-827l-156 -587h931l-26 -100h-1041z" />
<glyph unicode="&#x416;" horiz-adv-x="2238" d="M-90 0l840 844l-397 619h125l590 -933l248 933h109l-245 -920l1068 920h152l-748 -634l393 -829h-123l-355 756l-429 -361l-104 -395h-109l107 407l-225 349l-751 -756h-146z" />
<glyph unicode="&#x417;" horiz-adv-x="1252" d="M14 238l94 57q146 -222 442 -222q185 0 303 93t118 229q0 144 -115.5 219.5t-273.5 75.5h-124l24 95h146q216 0 354 90t138 241q0 123 -96.5 196t-246.5 73q-213 0 -397 -144l-67 73q207 169 464 169q192 0 324.5 -97t132.5 -264q0 -161 -116.5 -260t-323.5 -133 q129 -37 210.5 -120t81.5 -210q0 -180 -158 -302.5t-385 -122.5q-182 0 -318.5 72.5t-210.5 191.5z" />
<glyph unicode="&#x418;" horiz-adv-x="1599" d="M75 0l393 1463h108l-349 -1298l1298 1298h106l-390 -1463h-109l347 1297l-1295 -1297h-109z" />
<glyph unicode="&#x419;" horiz-adv-x="1599" d="M75 0l393 1463h108l-349 -1298l1298 1298h106l-390 -1463h-109l347 1297l-1295 -1297h-109zM789 1834l88 19q10 -75 47 -114t114 -39q82 0 142.5 41t89.5 112l84 -19q-34 -104 -122 -170t-196.5 -66t-175 66t-71.5 170z" />
<glyph unicode="&#x41a;" horiz-adv-x="1491" d="M75 0l393 1463h108l-255 -951l1170 951h161l-813 -654l443 -809h-124l-408 746l-468 -381l-98 -365h-109z" />
<glyph unicode="&#x41b;" horiz-adv-x="1587" d="M-155 26l55 85q46 -25 132 -25q41 0 81 14.5t104.5 78.5t127 173.5t143 323t160.5 506.5l75 281h896l-393 -1463h-108l365 1362h-683l-50 -184q-82 -307 -164 -529.5t-151.5 -349t-144.5 -198t-133 -93.5t-129 -22q-120 0 -183 40z" />
<glyph unicode="&#x41c;" horiz-adv-x="1814" d="M75 0l393 1463h90l355 -865l819 865h114l-392 -1463h-109l341 1270l-805 -842h-8l-353 842l-340 -1270h-105z" />
<glyph unicode="&#x41d;" horiz-adv-x="1578" d="M75 0l393 1463h108l-181 -678h925l182 678h109l-393 -1463h-109l184 685h-926l-183 -685h-109z" />
<glyph unicode="&#x41e;" horiz-adv-x="1766" d="M201 602q0 225 111.5 429.5t307 330t422.5 125.5q274 0 452.5 -180.5t178.5 -447.5q0 -226 -112 -431t-307 -330.5t-423 -125.5q-273 0 -451.5 181.5t-178.5 448.5zM313 602q0 -228 144.5 -379.5t373.5 -151.5q201 0 370 113t264.5 293.5t95.5 381.5q0 227 -144.5 378.5 t-374.5 151.5q-200 0 -369 -112.5t-264.5 -293.5t-95.5 -381z" />
<glyph unicode="&#x41f;" horiz-adv-x="1549" d="M75 0l393 1463h1113l-393 -1463h-108l365 1362h-895l-366 -1362h-109z" />
<glyph unicode="&#x420;" horiz-adv-x="1384" d="M75 0l393 1463h455q271 0 403 -132q100 -100 101 -261q0 -247 -194.5 -384.5t-528.5 -137.5h-371l-149 -548h-109zM357 646h351q295 0 452.5 109.5t157.5 309.5q0 119 -75 195q-102 102 -322 102h-371z" />
<glyph unicode="&#x421;" horiz-adv-x="1541" d="M192 566q0 234 116 447t319.5 343.5t437.5 130.5q192 0 329 -86.5t208 -228.5l-93 -50q-76 132 -181.5 199.5t-268.5 67.5q-309 0 -531.5 -251t-222.5 -568q0 -227 138.5 -362t356.5 -135q155 0 270.5 55.5t224.5 164.5l73 -68q-242 -253 -579 -253q-250 0 -423.5 162.5 t-173.5 431.5z" />
<glyph unicode="&#x422;" horiz-adv-x="1284" d="M293 1362l26 101h1128l-26 -101h-510l-365 -1362h-109l365 1362h-509z" />
<glyph unicode="&#x423;" horiz-adv-x="1483" d="M10 30l63 89q76 -41 180 -41q203 0 397 259l-355 1126h116l318 -1024l773 1024h127l-883 -1166q-242 -323 -497 -323q-165 0 -239 56z" />
<glyph unicode="&#x424;" horiz-adv-x="1800" d="M148 658q0 287 223 494.5t588 207.5h106l40 149h109l-40 -149q275 -2 427.5 -160t152.5 -389q0 -287 -222 -495t-587 -208h-106l-43 -162h-109l44 162q-275 2 -429 159t-154 391zM261 664q0 -203 129.5 -330t365.5 -127l282 1055h-93q-314 0 -499 -170.5t-185 -427.5z M865 207h94q313 0 498 170.5t185 426.5q0 203 -129.5 330.5t-366.5 127.5z" />
<glyph unicode="&#x425;" horiz-adv-x="1445" d="M-48 0l764 756l-388 707h117l349 -644l647 644h140l-735 -726l401 -737h-117l-361 675l-677 -675h-140z" />
<glyph unicode="&#x426;" horiz-adv-x="1591" d="M75 0l393 1463h108l-365 -1363h896l366 1363h108l-367 -1363h198l-138 -435h-92l90 335h-1197z" />
<glyph unicode="&#x427;" horiz-adv-x="1428" d="M243 800q0 60 16 119l144 544h109l-149 -554q-12 -48 -12 -86q0 -106 76.5 -165.5t214.5 -59.5q207 0 520 156l190 709h109l-391 -1463h-109l173 652q-307 -148 -490.5 -148t-292 76t-108.5 220z" />
<glyph unicode="&#x428;" horiz-adv-x="2299" d="M75 0l393 1463h108l-365 -1363h766l366 1363h108l-365 -1363h769l368 1363h109l-393 -1463h-1864z" />
<glyph unicode="&#x429;" horiz-adv-x="2340" d="M75 0l393 1463h108l-365 -1363h766l366 1363h108l-365 -1363h769l368 1363h109l-366 -1363h198l-137 -435h-93l91 335h-1950z" />
<glyph unicode="&#x42a;" horiz-adv-x="1635" d="M293 1362l26 101h508l-159 -590h379q263 0 388 -125q94 -94 94 -246q0 -238 -188 -370t-514 -132h-502l367 1362h-399zM462 100h369q285 0 437.5 102.5t152.5 294.5q0 111 -69 180q-96 96 -308 96h-402z" />
<glyph unicode="&#x42b;" horiz-adv-x="1816" d="M75 0l393 1463h108l-158 -590h378q263 0 388 -125q94 -94 94 -246q0 -238 -187.5 -370t-514.5 -132h-501zM211 100h369q285 0 437.5 102.5t152.5 294.5q0 111 -69 180q-96 96 -307 96h-403zM1349 0l391 1463h108l-389 -1463h-110z" />
<glyph unicode="&#x42c;" horiz-adv-x="1384" d="M75 0l393 1463h108l-158 -590h378q263 0 388 -125q94 -94 94 -246q0 -238 -187.5 -370t-514.5 -132h-501zM211 100h369q285 0 437.5 102.5t152.5 294.5q0 111 -69 180q-96 96 -307 96h-403z" />
<glyph unicode="&#x42d;" horiz-adv-x="1541" d="M58 289l95 50q75 -132 180.5 -200t268.5 -68q261 0 457.5 176.5t254.5 439.5h-758l26 100h749q4 55 4 82q0 230 -140 374t-356 144q-155 0 -270.5 -55.5t-223.5 -163.5l-74 66q243 253 580 253q249 0 422.5 -171.5t173.5 -442.5q0 -235 -110.5 -441.5t-308 -333 t-432.5 -126.5q-192 0 -329 87t-209 230z" />
<glyph unicode="&#x42e;" horiz-adv-x="2173" d="M75 0l393 1463h108l-183 -678h328q62 303 282.5 502.5t495.5 199.5q264 0 423 -172.5t159 -437.5q0 -372 -239 -638.5t-562 -266.5q-261 0 -420.5 172.5t-159.5 437.5q0 48 6 103h-339l-183 -685h-109zM815 584q0 -225 127 -369t338 -144q280 0 483 240.5t203 565.5 q0 226 -127.5 369t-339.5 143q-279 0 -481.5 -238t-202.5 -567z" />
<glyph unicode="&#x42f;" horiz-adv-x="1489" d="M-18 0l618 598q-153 29 -231 110q-94 94 -94 249q0 237 189.5 371.5t515.5 134.5h541l-391 -1463h-109l157 582h-455l-598 -582h-143zM385 961q0 -113 68 -182q97 -96 310 -96h441l183 679h-412q-284 0 -437 -104.5t-153 -296.5z" />
<glyph unicode="&#x430;" horiz-adv-x="1192" d="M48 273q0 176 133.5 281.5t346.5 105.5q188 0 410 -60l9 28q14 54 14 107q0 122 -82.5 186.5t-238.5 64.5q-146 0 -310 -57l-19 92q169 60 337 61q194 0 303.5 -88.5t109.5 -243.5q0 -60 -21 -140l-163 -610h-100l48 184q-175 -210 -428 -210q-144 0 -246.5 79 t-102.5 220zM157 287q0 -98 70 -158t189 -60q157 0 296 99t179 256l26 94q-201 50 -403 50q-159 0 -258 -78.5t-99 -202.5z" />
<glyph unicode="&#x431;" horiz-adv-x="1340" d="M132 447q0 96 16.5 199.5t59.5 219.5t105.5 211t162.5 169t226 101l624 134l23 -92l-616 -137q-173 -40 -273.5 -136.5t-156.5 -269.5h8q182 211 443 211q213 0 343.5 -125t130.5 -328q0 -247 -193 -438.5t-425 -191.5q-234 0 -356 132t-122 341zM241 441 q0 -162 94.5 -266t274.5 -104q188 0 347 164t159 373q0 165 -99.5 261t-276.5 96q-201 0 -350 -155.5t-149 -368.5z" />
<glyph unicode="&#x432;" horiz-adv-x="1210" d="M52 0l287 1065h448q146 0 233 -64.5t87 -177.5q0 -111 -78 -182t-204 -95q90 -21 147.5 -82t57.5 -151q0 -138 -120.5 -225.5t-325.5 -87.5h-532zM177 92h399q159 0 252 60.5t93 166.5q0 86 -75 134.5t-194 48.5h-363zM311 590h343q155 0 249 61t94 164q0 159 -232 158 h-349z" />
<glyph unicode="&#x433;" horiz-adv-x="960" d="M52 0l287 1065h703l-25 -92h-601l-261 -973h-103z" />
<glyph unicode="&#x434;" horiz-adv-x="1269" d="M-182 -301l102 393h130q227 259 357 747l61 226h714l-261 -973h171l-125 -393h-84l82 301h-961l-102 -301h-84zM163 92h656l238 881h-514l-52 -192q-56 -211 -145 -397t-183 -292z" />
<glyph unicode="&#x435;" horiz-adv-x="1216" d="M104 422q0 257 182 462.5t435 205.5q192 0 297.5 -116.5t105.5 -290.5q0 -102 -30 -186h-875q-4 -46 -4 -71q0 -161 98 -258t255 -97q190 0 363 142l61 -73q-198 -166 -424 -166q-205 0 -334.5 125.5t-129.5 322.5zM238 590h773q8 37 8 87q0 138 -76 229t-224 91 q-171 0 -302 -117t-179 -290z" />
<glyph unicode="&#x436;" horiz-adv-x="1737" d="M-90 0l620 612l-294 453h117l430 -678l182 678h103l-181 -672l782 672h138l-549 -465l288 -600h-115l-253 532l-325 -275l-70 -257h-102l73 271l-172 263l-536 -534h-136z" />
<glyph unicode="&#x437;" d="M8 138l78 83q146 -146 342 -146q128 0 229 74t101 181q0 80 -69 124.5t-192 44.5h-146l25 93h138q124 0 214.5 65.5t90.5 171.5q0 74 -62.5 116.5t-162.5 42.5q-197 0 -351 -109l-46 82q185 123 407 123q148 0 238.5 -73t90.5 -180q0 -191 -219 -277q73 -28 115 -88.5 t42 -137.5q0 -145 -123 -246.5t-322 -101.5q-253 0 -418 158z" />
<glyph unicode="&#x438;" horiz-adv-x="1300" d="M52 0l287 1065h102l-247 -917l952 917h104l-287 -1065h-102l248 921l-954 -921h-103z" />
<glyph unicode="&#x439;" horiz-adv-x="1300" d="M52 0l287 1065h102l-247 -917l952 917h104l-287 -1065h-102l248 921l-954 -921h-103zM564 1479l88 18q10 -75 46.5 -113.5t114.5 -38.5q82 0 142 41t89 111l84 -18q-34 -104 -121.5 -170t-196 -66t-175.5 66t-71 170z" />
<glyph unicode="&#x43a;" horiz-adv-x="1168" d="M52 0l287 1065h102l-180 -670l827 670h148l-592 -475l317 -590h-119l-284 526l-335 -267l-68 -259h-103z" />
<glyph unicode="&#x43b;" horiz-adv-x="1267" d="M-132 2l42 92q30 -14 76 -14q62 0 106 25t104.5 112.5t129.5 283t154 508.5l17 56h719l-287 -1065h-102l261 973h-518l-8 -28q-71 -260 -133 -438.5t-113 -282t-107 -158t-102 -68.5t-113 -14q-88 0 -126 18z" />
<glyph unicode="&#x43c;" horiz-adv-x="1441" d="M52 0l287 1065h81l267 -618l606 618h98l-286 -1065h-102l238 887l-585 -588l-263 592l-238 -891h-103z" />
<glyph unicode="&#x43d;" horiz-adv-x="1286" d="M52 0l287 1065h102l-128 -473h692l127 473h102l-285 -1065h-103l134 499h-691l-134 -499h-103z" />
<glyph unicode="&#x43e;" horiz-adv-x="1321" d="M106 447q0 255 190.5 449t443.5 194q211 0 342.5 -132.5t131.5 -339.5q0 -259 -192.5 -451.5t-441.5 -192.5q-211 0 -342.5 133.5t-131.5 339.5zM217 451q0 -178 102.5 -279t272.5 -101q198 0 354.5 163t156.5 380q0 178 -102 279t-272 101q-203 0 -357.5 -165 t-154.5 -378z" />
<glyph unicode="&#x43f;" horiz-adv-x="1258" d="M52 0l287 1065h869l-287 -1065h-102l261 973h-664l-261 -973h-103z" />
<glyph unicode="&#x440;" horiz-adv-x="1365" d="M-38 -335l377 1400h100l-57 -208q197 233 443 233q186 0 307.5 -126.5t121.5 -321.5q0 -280 -179.5 -475t-422.5 -195q-165 0 -272 85t-153 214l-163 -606h-102zM279 441q0 -157 104 -264.5t265 -107.5q211 0 352.5 167t141.5 392q0 164 -91.5 265t-237.5 101 q-201 0 -367.5 -171t-166.5 -382z" />
<glyph unicode="&#x441;" horiz-adv-x="1176" d="M104 435q0 263 187 459t440 196q153 0 258 -72.5t160 -184.5l-86 -48q-119 209 -338 209q-203 0 -356.5 -167t-153.5 -386q0 -172 105.5 -271t253.5 -99q182 0 345 152l69 -66q-188 -183 -420 -183q-186 0 -325 125.5t-139 335.5z" />
<glyph unicode="&#x442;" horiz-adv-x="1025" d="M167 973l25 92h900l-24 -92h-400l-261 -973h-102l261 973h-399z" />
<glyph unicode="&#x443;" horiz-adv-x="1186" d="M-184 -267l56 83q76 -60 182 -61q84 0 164.5 57.5t176.5 193.5l-218 1059h110l185 -952l642 952h122l-758 -1103q-113 -163 -216 -233t-220 -70q-122 0 -226 74z" />
<glyph unicode="&#x444;" horiz-adv-x="1786" d="M94 339q0 169 61.5 336t198.5 291t318 124q170 0 285 -135l133 508h102l-131 -498q56 44 90.5 66t90 40.5t118.5 18.5q150 0 241 -101.5t91 -276.5q0 -123 -37.5 -250t-106.5 -237t-182.5 -180.5t-251.5 -70.5q-180 0 -287 122l-115 -431h-102l115 431 q-144 -122 -299 -122t-243.5 92.5t-88.5 272.5zM203 343q0 -126 60 -198t184 -72q148 0 309 136l175 656q-85 127 -259 127q-148 0 -259.5 -105.5t-160.5 -249.5t-49 -294zM855 201q85 -128 259 -128q115 0 206.5 58.5t147 153.5t83.5 205t28 222q0 127 -60 203.5t-180 76.5 q-155 0 -305 -127z" />
<glyph unicode="&#x445;" horiz-adv-x="1166" d="M-60 0l592 552l-281 513h116l235 -449l468 449h138l-560 -522l294 -543h-117l-247 478l-500 -478h-138z" />
<glyph unicode="&#x446;" horiz-adv-x="1294" d="M52 0l287 1065h102l-261 -973h664l261 973h103l-261 -973h171l-128 -393h-83l81 301h-936z" />
<glyph unicode="&#x447;" horiz-adv-x="1160" d="M169 586q0 48 15 99l103 380h102l-107 -401q-11 -38 -11 -64q0 -70 50.5 -109.5t142.5 -39.5q207 0 409 117l134 497h102l-286 -1065h-102l125 466q-222 -108 -397 -109q-130 0 -205 60.5t-75 168.5z" />
<glyph unicode="&#x448;" horiz-adv-x="1858" d="M52 0l287 1065h102l-261 -973h580l261 973h103l-261 -973h580l261 973h103l-286 -1065h-1469z" />
<glyph unicode="&#x449;" horiz-adv-x="1894" d="M52 0l287 1065h102l-261 -973h580l261 973h103l-261 -973h580l261 973h103l-261 -973h171l-127 -393h-83l80 301h-1535z" />
<glyph unicode="&#x44a;" horiz-adv-x="1292" d="M167 973l25 92h436l-114 -427h305q192 0 284 -92q69 -70 69 -181q0 -173 -136.5 -269t-375.5 -96h-419l261 973h-335zM367 92h285q199 0 305 70t106 199q0 94 -74 139.5t-180 45.5h-320z" />
<glyph unicode="&#x44b;" horiz-adv-x="1531" d="M52 0l287 1065h102l-116 -427h303q192 0 285 -92q69 -70 69 -181q0 -173 -137 -269t-375 -96h-418zM180 92h282q199 0 305 70t106 199q0 94 -74 139.5t-181 45.5h-317zM1090 0l287 1065h102l-287 -1065h-102z" />
<glyph unicode="&#x44c;" horiz-adv-x="1104" d="M52 0l287 1065h102l-116 -427h305q192 0 285 -92q69 -70 69 -181q0 -173 -137 -269t-375 -96h-420zM180 92h284q199 0 305 70t106 199q0 94 -74 139.5t-181 45.5h-319z" />
<glyph unicode="&#x44d;" horiz-adv-x="1173" d="M20 232l86 47q119 -209 339 -208q171 0 311.5 123t183.5 305h-535l23 93h525q2 10 2 32q0 172 -105.5 271t-253.5 99q-176 0 -331 -139l-60 74q180 161 397 161q185 0 324 -125.5t139 -334.5q0 -263 -186.5 -459.5t-439.5 -196.5q-153 0 -258.5 73.5t-160.5 184.5z" />
<glyph unicode="&#x44e;" horiz-adv-x="1700" d="M52 0l285 1065h102l-130 -483h251q48 216 210.5 362t380.5 146q203 0 322 -127.5t119 -322.5q0 -268 -176.5 -467t-431.5 -199q-201 0 -321 126.5t-120 323.5q0 42 3 65h-261l-130 -489h-103zM654 430q0 -165 89.5 -262t250.5 -97q203 0 345 168t142 396q0 166 -91 262.5 t-250 96.5q-205 0 -345.5 -169t-140.5 -395z" />
<glyph unicode="&#x44f;" horiz-adv-x="1190" d="M-20 0l442 426q-231 50 -232 272q0 173 138 270t374 97h436l-283 -1065h-103l111 416h-326l-424 -416h-133zM285 696q0 -90 66 -139t192 -49h344l126 465h-313q-201 0 -308 -72t-107 -205z" />
<glyph unicode="&#x451;" horiz-adv-x="1216" d="M104 422q0 257 182 462.5t435 205.5q192 0 297.5 -116.5t105.5 -290.5q0 -102 -30 -186h-875q-4 -46 -4 -71q0 -161 98 -258t255 -97q190 0 363 142l61 -73q-198 -166 -424 -166q-205 0 -334.5 125.5t-129.5 322.5zM238 590h773q8 37 8 87q0 138 -76 229t-224 91 q-171 0 -302 -117t-179 -290zM526 1243l46 167h144l-46 -167h-144zM867 1243l46 167h144l-46 -167h-144z" />
<glyph unicode="&#x452;" horiz-adv-x="1271" d="M52 0l326 1214h-175l24 92h176l59 219h102l-58 -219h476l-25 -92h-477l-93 -347q185 223 402 223q160 0 254.5 -92.5t94.5 -245.5q0 -58 -22 -150l-63 -235q-54 -199 -164 -296t-307 -97q-131 0 -210 49l52 88q72 -40 172 -40q271 0 359 316l62 223q16 62 17 132 q0 119 -73.5 188t-200.5 69q-140 0 -269.5 -113t-175.5 -284l-160 -602h-103z" />
<glyph unicode="&#x453;" horiz-adv-x="960" d="M52 0l287 1065h703l-25 -92h-601l-261 -973h-103zM578 1243l259 278l130 -62l-282 -216h-107z" />
<glyph unicode="&#x454;" horiz-adv-x="1176" d="M104 435q0 263 187 459t440 196q270 0 401 -225l-88 -50q-117 179 -319 179q-165 0 -302.5 -115.5t-186.5 -286.5h547l-23 -93h-543q-2 -21 -2 -58q0 -172 105.5 -271t253.5 -99q199 0 364 154l69 -66q-192 -185 -439 -185q-186 0 -325 125.5t-139 335.5z" />
<glyph unicode="&#x455;" horiz-adv-x="1033" d="M2 161l73 73q170 -164 391 -163q106 0 191 59.5t85 151.5q0 64 -49 112.5t-183 98.5q-159 58 -229 122t-70 164q0 130 109.5 219.5t285.5 89.5q215 0 384 -141l-67 -78q-153 125 -327 125q-128 0 -202.5 -58.5t-74.5 -139.5q0 -65 48.5 -108.5t192.5 -101.5 q159 -62 225 -126.5t66 -160.5q0 -138 -117.5 -230t-280.5 -92q-267 0 -451 184z" />
<glyph unicode="&#x456;" horiz-adv-x="522" d="M67 0l286 1065h102l-286 -1065h-102zM416 1343l37 140h127l-37 -140h-127z" />
<glyph unicode="&#x457;" horiz-adv-x="522" d="M67 0l286 1065h102l-286 -1065h-102zM192 1243l46 167h144l-45 -167h-145zM532 1243l46 167h145l-46 -167h-145z" />
<glyph unicode="&#x458;" horiz-adv-x="519" d="M-241 -319l26 92q58 -17 98 -18q117 0 157 145l313 1165h102l-315 -1173q-30 -111 -94 -172t-154 -61q-69 0 -133 22zM416 1343l37 140h127l-37 -140h-127z" />
<glyph unicode="&#x459;" horiz-adv-x="1879" d="M-132 2l42 92q30 -14 76 -14q62 0 106 25t104.5 112.5t129.5 283t154 508.5l17 56h719l-115 -427h305q191 0 284 -92q70 -70 68 -181q0 -173 -136.5 -269t-374.5 -96h-420l261 973h-518l-8 -28q-71 -260 -133 -438.5t-113 -282t-107 -158t-102 -68.5t-113 -14 q-88 0 -126 18zM955 92h283q199 0 305.5 70t106.5 199q0 94 -74 139.5t-181 45.5h-319z" />
<glyph unicode="&#x45a;" horiz-adv-x="1898" d="M52 0l287 1065h102l-122 -455h692l121 455h102l-120 -455h311q163 0 258 -69t95 -196q0 -159 -138 -252t-374 -93h-420l140 518h-691l-140 -518h-103zM973 92h285q197 0 304 66.5t107 182.5q0 89 -74 133t-181 44h-326z" />
<glyph unicode="&#x45b;" horiz-adv-x="1271" d="M52 0l326 1214h-175l24 92h176l59 219h102l-58 -219h476l-25 -92h-477l-93 -347q185 223 402 223q160 0 254.5 -92.5t94.5 -245.5q0 -58 -22 -150l-159 -602h-102l162 610q16 62 17 132q0 119 -73.5 188t-200.5 69q-140 0 -269.5 -113t-175.5 -284l-160 -602h-103z" />
<glyph unicode="&#x45c;" horiz-adv-x="1168" d="M52 0l287 1065h102l-180 -670l827 670h148l-592 -475l317 -590h-119l-284 526l-335 -267l-68 -259h-103zM620 1243l259 278l130 -62l-282 -216h-107z" />
<glyph unicode="&#x45e;" horiz-adv-x="1186" d="M-184 -267l56 83q76 -60 182 -61q84 0 164.5 57.5t176.5 193.5l-218 1059h110l185 -952l642 952h122l-758 -1103q-113 -163 -216 -233t-220 -70q-122 0 -226 74zM480 1479l88 18q10 -75 47 -113.5t114 -38.5q82 0 142 41t90 111l83 -18q-33 -104 -121 -170t-196.5 -66 t-175.5 66t-71 170z" />
<glyph unicode="&#x45f;" horiz-adv-x="1258" d="M54 0l285 1065h102l-259 -973h664l259 973h103l-285 -1065h-373l-82 -301h-105l82 301h-391z" />
<glyph unicode="&#x490;" horiz-adv-x="1214" d="M75 0l393 1463h800l90 333h91l-95 -434h-804l-366 -1362h-109z" />
<glyph unicode="&#x491;" horiz-adv-x="960" d="M52 0l287 1065h597l81 301h84l-84 -393h-601l-261 -973h-103z" />
<glyph unicode="&#x2000;" horiz-adv-x="938" />
<glyph unicode="&#x2001;" horiz-adv-x="1876" />
<glyph unicode="&#x2002;" horiz-adv-x="938" />
<glyph unicode="&#x2003;" horiz-adv-x="1876" />
<glyph unicode="&#x2004;" horiz-adv-x="625" />
<glyph unicode="&#x2005;" horiz-adv-x="469" />
<glyph unicode="&#x2006;" horiz-adv-x="312" />
<glyph unicode="&#x2007;" horiz-adv-x="312" />
<glyph unicode="&#x2008;" horiz-adv-x="234" />
<glyph unicode="&#x2009;" horiz-adv-x="375" />
<glyph unicode="&#x200a;" horiz-adv-x="104" />
<glyph unicode="&#x2010;" horiz-adv-x="853" d="M155 562l31 117h560l-32 -117h-559z" />
<glyph unicode="&#x2011;" horiz-adv-x="853" d="M155 562l31 117h560l-32 -117h-559z" />
<glyph unicode="&#x2012;" horiz-adv-x="853" d="M155 562l31 117h560l-32 -117h-559z" />
<glyph unicode="&#x2013;" horiz-adv-x="1102" d="M155 566l29 109h810l-29 -109h-810z" />
<glyph unicode="&#x2014;" horiz-adv-x="1875" d="M155 566l29 109h1584l-30 -109h-1583z" />
<glyph unicode="&#x2018;" horiz-adv-x="482" d="M307 1072l42 154q29 108 82 161.5t159 83.5l14 -50q-144 -50 -167 -171h56l-48 -178h-138z" />
<glyph unicode="&#x2019;" horiz-adv-x="482" d="M273 1114q144 50 168 171h-56l47 178h138l-42 -155q-31 -108 -83 -162t-156 -83z" />
<glyph unicode="&#x201a;" horiz-adv-x="482" d="M-82 -171q144 50 168 171h-56l48 177h137l-42 -154q-31 -108 -83.5 -161.5t-156.5 -82.5z" />
<glyph unicode="&#x201c;" horiz-adv-x="857" d="M305 1072l42 154q29 108 82 161.5t157 83.5l16 -50q-144 -50 -167 -171h56l-48 -178h-138zM681 1072l42 154q30 108 83 161.5t157 83.5l14 -50q-144 -50 -166 -171h56l-48 -178h-138z" />
<glyph unicode="&#x201d;" horiz-adv-x="857" d="M251 1114q144 50 167 171h-57l48 178h139l-42 -155q-32 -108 -84.5 -162t-156.5 -83zM626 1114q144 50 168 171h-57l48 178h138l-42 -155q-31 -108 -83 -162t-156 -83z" />
<glyph unicode="&#x201e;" horiz-adv-x="859" d="M-82 -171q144 50 168 171h-56l48 177h137l-42 -154q-31 -108 -83.5 -161.5t-156.5 -82.5zM297 -171q144 50 167 171h-57l48 177h139l-42 -154q-32 -108 -84.5 -161.5t-156.5 -82.5z" />
<glyph unicode="&#x2026;" horiz-adv-x="1425" d="M30 0l48 177h137l-48 -177h-137zM502 0l48 177h137l-47 -177h-138zM973 0l48 177h139l-48 -177h-139z" />
<glyph unicode="&#x202f;" horiz-adv-x="375" />
<glyph unicode="&#x2039;" horiz-adv-x="648" d="M94 524l4 17l452 436l74 -58l-401 -401l174 -384l-86 -46z" />
<glyph unicode="&#x203a;" horiz-adv-x="648" d="M23 144l401 402l-173 383l86 46l217 -436l-4 -17l-452 -436z" />
<glyph unicode="&#x205f;" horiz-adv-x="469" />
<glyph unicode="&#x20ac;" horiz-adv-x="1428" d="M78 512l26 100h167q6 136 44 257h-144l28 100h152q94 232 272.5 375t406.5 143q174 0 290.5 -91.5t166.5 -239.5l-94 -38q-56 134 -144.5 202.5t-237.5 68.5q-172 0 -316.5 -114.5t-228.5 -305.5h628l-26 -100h-640q-39 -129 -46 -257h619l-28 -100h-591 q11 -199 115.5 -319t281.5 -120q236 0 421 204l72 -62q-215 -241 -495 -241q-215 0 -356.5 145.5t-151.5 392.5h-191z" />
<glyph unicode="&#x2122;" horiz-adv-x="1441" d="M273 1391l22 72h494l-20 -72h-211l-163 -572h-74l163 572h-211zM752 819l184 644h67l150 -383l351 383h86l-184 -644h-73l148 514l-349 -372h-10l-149 372l-148 -514h-73z" />
<glyph unicode="&#x25fc;" horiz-adv-x="1064" d="M0 0v1065h1065v-1065h-1065z" />
</font>
</defs>
</svg>
